<svg xmlns="http://www.w3.org/2000/svg" height="512" viewBox="0 0 502 502" width="512"><linearGradient id="a" gradientUnits="userSpaceOnUse" x1="162.775" x2="162.775" y1="480.456" y2="130.662"><stop offset="0" stop-color="#f5e5a2"/><stop offset="1" stop-color="#fcf7cf"/></linearGradient><linearGradient id="b" gradientUnits="userSpaceOnUse" x1="236.949" x2="92.177" y1="231.851" y2="231.851"><stop offset="0" stop-color="#53aae6"/><stop offset="1" stop-color="#a4d2f0"/></linearGradient><linearGradient id="c" gradientUnits="userSpaceOnUse" x1="258.025" x2="258.025" y1="476.509" y2="-8.075"><stop offset="0" stop-color="#74d2e8"/><stop offset="1" stop-color="#baeaf5"/></linearGradient><path d="M116.622 176.45L14.423 278.649c-19.231 19.231-19.231 50.411 0 69.642 19.231 19.231 50.411 19.231 69.642 0l-33.943 33.943c-19.231 19.231-19.231 50.411 0 69.642 19.231 19.231 50.411 19.232 69.642.001l33.943-33.943c-19.231 19.231-19.231 50.411.001 69.642 19.231 19.231 50.411 19.232 69.642 0l102.2-102.198z" fill="url(#a)"/><path d="M417.452 84.548L312.299 379.154H171.966c-27.128 0-49.12-21.992-49.12-49.12V189.701z" fill="url(#b)"/><path d="M223.226 291.701a26.727 26.727 0 00-12.927-12.927l-44.441-20.723c-8.793-4.1-19.242-.265-23.295 8.549-4.023 8.748-.223 19.102 8.504 23.171l41.711 19.45 32.611 69.934h38.618z" fill="#0099cf"/><path d="M210.3 278.774L43.937 201.198C.15 180.78 5.746 116.816 52.413 104.311L434.701 1.877c39.719-10.643 76.065 25.703 65.422 65.422L397.689 449.587c-12.504 46.668-76.469 52.264-96.887 8.477L223.226 291.7a26.723 26.723 0 00-12.926-12.926z" fill="url(#c)"/><path d="M283.699 190.016l-83.873 83.874 10.474 4.884a26.723 26.723 0 0112.926 12.926l4.884 10.475 83.874-83.874c7.81-7.811 7.81-20.475 0-28.285s-20.474-7.81-28.285 0z" fill="#18c9de"/><ellipse cx="283.699" cy="94.012" fill="#eaadcd" rx="12.003" ry="14.936" transform="rotate(-45 283.703 94.07)"/><ellipse cx="407.988" cy="218.301" fill="#eaadcd" rx="12.003" ry="14.936" transform="rotate(-45 407.976 218.392)"/><circle cx="322.749" cy="91.176" fill="#fff" r="29.618"/><circle cx="331.209" cy="99.637" fill="#3b3b44" transform="rotate(-31.72 331.036 99.592)" r="17.652"/><circle cx="410.824" cy="179.251" fill="#fff" r="29.618"/><g fill="#3b3b44"><circle cx="419.241" cy="187.668" r="17.652"/><path d="M360.281 160.46c-6.776 6.776-16.465 8.074-21.64 2.899s-3.877-14.864 2.899-21.64 16.465-8.075 21.64-2.899c5.175 5.175 3.877 14.864-2.899 21.64z"/></g><g fill="#e3fcff"><path d="M458.903 115.247a9.985 9.985 0 01-2.594-.344c-5.335-1.43-8.501-6.913-7.071-12.247l2.843-10.609a10 10 0 0112.247-7.071c5.335 1.43 8.501 6.913 7.071 12.247l-2.843 10.609c-1.197 4.468-5.238 7.415-9.653 7.415zM471.882 65.534c-.33 0-.663-.017-.999-.05-5.495-.545-9.509-5.442-8.964-10.938.412-4.155-1.218-7.264-2.657-9.14-2.598-3.386-6.52-5.406-10.491-5.406-5.523 0-10-4.478-10-10s4.477-10 10-10c10.147 0 20.001 4.946 26.358 13.23 2.977 3.881 7.806 12.066 6.692 23.29-.511 5.161-4.861 9.014-9.939 9.014z"/></g></svg>
