<svg height="512pt" viewBox="0 -120 512.002 512" width="512pt" xmlns="http://www.w3.org/2000/svg"><path d="M409.898 153.902L511.695 0H355.578l-2.914 11.293c-7.48 28.992-21.52 68.285-45.914 90.84-3.016 2.785-5.871 5.023-8.5 6.816V0H162.277v30.102h12.703v68.222c-15.242-13.406-34.394-38.988-39.41-84.906L134.105 0H0l4.605 18.656c16.56 67.094 41.399 122.059 73.836 163.367 26.48 33.727 58.02 58.489 93.739 73.594 31.898 13.492 61.27 16.801 82.402 16.801 19.438 0 31.902-2.8 32.95-3.043l11.464-2.672.594-41.351 51.058 44.418h161.356zm0 0" fill="#7080e5"/><path d="M409.898 153.902L511.695 0H355.578l-2.914 11.293c-7.48 28.992-21.52 68.285-45.914 90.84-3.016 2.785-5.871 5.023-8.5 6.816V0h-51.688v272.258c2.786.11 5.461.16 8.02.16 19.438 0 31.902-2.8 32.95-3.043l11.464-2.672.594-41.351 51.058 44.418h161.356zm0 0" fill="#4c60de"/></svg>
